{
  "accessors": [
    {
      "bufferView": 2,
      "componentType": 5126,
      "count": 4,
      "max": [
        167.02890014648438,
        167.02890014648438,
        0
      ],
      "min": [
        -167.02890014648438,
        -167.02890014648438,
        0
      ],
      "type": "VEC3"
    },
    {
      "bufferView": 2,
      "byteOffset": 48,
      "componentType": 5126,
      "count": 4,
      "max": [
        0,
        0,
        1
      ],
      "min": [
        0,
        0,
        1
      ],
      "type": "VEC3"
    },
    {
      "bufferView": 3,
      "componentType": 5126,
      "count": 4,
      "max": [
        1,
        2.3841863594498136e-07,
        0,
        1
      ],
      "min": [
        1,
        1.8270841906087298e-07,
        0,
        1
      ],
      "type": "VEC4"
    },
    {
      "bufferView": 1,
      "componentType": 5126,
      "count": 4,
      "max": [
        1,
        1
      ],
      "min": [
        2.9802322387695312e-08,
        2.9802322387695312e-08
      ],
      "type": "VEC2"
    },
    {
      "bufferView": 0,
      "componentType": 5125,
      "count": 6,
      "max": [
        3
      ],
      "min": [
        0
      ],
      "type": "SCALAR"
    },
    {
      "bufferView": 2,
      "byteOffset": 96,
      "componentType": 5126,
      "count": 3240,
      "max": [
        88.933670043945312,
        38.011699676513672,
        18.444553375244141
      ],
      "min": [
        -31.504854202270508,
        -11.956411361694336,
        0.21631431579589844
      ],
      "type": "VEC3"
    },
    {
      "bufferView": 2,
      "byteOffset": 38976,
      "componentType": 5126,
      "count": 3240,
      "max": [
        1,
        1,
        1
      ],
      "min": [
        -1,
        -1,
        -1
      ],
      "type": "VEC3"
    },
    {
      "bufferView": 3,
      "byteOffset": 64,
      "componentType": 5126,
      "count": 3240,
      "max": [
        0.99999994039535522,
        0.71618860960006714,
        0.9999992847442627,
        1
      ],
      "min": [
        -0.99999988079071045,
        -0.71619981527328491,
        -0.9999883770942688,
        -1
      ],
      "type": "VEC4"
    },
    {
      "bufferView": 1,
      "byteOffset": 32,
      "componentType": 5126,
      "count": 3240,
      "max": [
        0.98854976892471313,
        0.99043703079223633
      ],
      "min": [
        0.010948240756988525,
        0.00050000002374872565
      ],
      "type": "VEC2"
    },
    {
      "bufferView": 1,
      "byteOffset": 25952,
      "componentType": 5126,
      "count": 3240,
      "max": [
        0.98130244016647339,
        0.98171705007553101
      ],
      "min": [
        0.031237555667757988,
        0.011731671169400215
      ],
      "type": "VEC2"
    },
    {
      "bufferView": 1,
      "byteOffset": 51872,
      "componentType": 5126,
      "count": 3240,
      "max": [
        0.98854976892471313,
        0.99043703079223633
      ],
      "min": [
        0.010948240756988525,
        0.00050000002374872565
      ],
      "type": "VEC2"
    },
    {
      "bufferView": 0,
      "byteOffset": 24,
      "componentType": 5125,
      "count": 15744,
      "max": [
        3239
      ],
      "min": [
        0
      ],
      "type": "SCALAR"
    },
    {
      "bufferView": 2,
      "byteOffset": 77856,
      "componentType": 5126,
      "count": 12504,
      "max": [
        78.578712463378906,
        30.726772308349609,
        0.3033905029296875
      ],
      "min": [
        -19.564653396606445,
        -4.6714811325073242,
        -26.31474494934082
      ],
      "type": "VEC3"
    },
    {
      "bufferView": 2,
      "byteOffset": 227904,
      "componentType": 5126,
      "count": 12504,
      "max": [
        1,
        1,
        1
      ],
      "min": [
        -1,
        -1,
        -1
      ],
      "type": "VEC3"
    },
    {
      "bufferView": 3,
      "byteOffset": 51904,
      "componentType": 5126,
      "count": 12504,
      "max": [
        1,
        0.9999995231628418,
        0.99970591068267822,
        1
      ],
      "min": [
        -1,
        -0.99999946355819702,
        -0.99970591068267822,
        -1
      ],
      "type": "VEC4"
    },
    {
      "bufferView": 1,
      "byteOffset": 77792,
      "componentType": 5126,
      "count": 12504,
      "max": [
        0.92537480592727661,
        0.98245096206665039
      ],
      "min": [
        -0.72739338874816895,
        0.0044606607407331467
      ],
      "type": "VEC2"
    },
    {
      "bufferView": 1,
      "byteOffset": 177824,
      "componentType": 5126,
      "count": 12504,
      "max": [
        3.0727438926696777,
        1.206339955329895
      ],
      "min": [
        -2.1018009185791016,
        -0.097012802958488464
      ],
      "type": "VEC2"
    },
    {
      "bufferView": 0,
      "byteOffset": 63000,
      "componentType": 5125,
      "count": 53232,
      "max": [
        12503
      ],
      "min": [
        0
      ],
      "type": "SCALAR"
    },
    {
      "bufferView": 2,
      "byteOffset": 377952,
      "componentType": 5126,
      "count": 1100,
      "max": [
        78.453681945800781,
        30.601749420166016,
        -26.318477630615234
      ],
      "min": [
        -19.439626693725586,
        -4.5464544296264648,
        -26.539363861083984
      ],
      "type": "VEC3"
    },
    {
      "bufferView": 2,
      "byteOffset": 391152,
      "componentType": 5126,
      "count": 1100,
      "max": [
        0.98718112707138062,
        0.98715490102767944,
        1
      ],
      "min": [
        -0.98715388774871826,
        -0.98715478181838989,
        -1
      ],
      "type": "VEC3"
    },
    {
      "bufferView": 3,
      "byteOffset": 251968,
      "componentType": 5126,
      "count": 1100,
      "max": [
        1,
        0.99958258867263794,
        0.81753706932067871,
        1
      ],
      "min": [
        -1,
        -0.99958276748657227,
        -0.81755554676055908,
        -1
      ],
      "type": "VEC4"
    },
    {
      "bufferView": 1,
      "byteOffset": 277856,
      "componentType": 5126,
      "count": 1100,
      "max": [
        0.87566107511520386,
        0.88765859603881836
      ],
      "min": [
        0.61574244499206543,
        0.28402027487754822
      ],
      "type": "VEC2"
    },
    {
      "bufferView": 1,
      "byteOffset": 286656,
      "componentType": 5126,
      "count": 1100,
      "max": [
        1.0227272510528564,
        1
      ],
      "min": [
        0.02272726409137249,
        0
      ],
      "type": "VEC2"
    },
    {
      "bufferView": 0,
      "byteOffset": 275928,
      "componentType": 5125,
      "count": 4224,
      "max": [
        1099
      ],
      "min": [
        0
      ],
      "type": "SCALAR"
    }
  ],
  "asset": {
    "extras": {
      "author": "MADE.COM (https://sketchfab.com/made-it)",
      "license": "CC-BY-NC-4.0 (http://creativecommons.org/licenses/by-nc/4.0/)",
      "source": "https://sketchfab.com/3d-models/hooper-storage-coffee-table-natural-ash-7fa74f7637014181b9bc31066d6884af",
      "title": "Hooper Storage Coffee Table, Natural Ash"
    },
    "generator": "Sketchfab-5.11.0",
    "version": "2.0"
  },
  "bufferViews": [
    {
      "buffer": 0,
      "byteLength": 292824,
      "byteOffset": 0,
      "name": "floatBufferViews",
      "target": 34963
    },
    {
      "buffer": 0,
      "byteLength": 295456,
      "byteOffset": 292824,
      "byteStride": 8,
      "name": "floatBufferViews",
      "target": 34962
    },
    {
      "buffer": 0,
      "byteLength": 404352,
      "byteOffset": 588280,
      "byteStride": 12,
      "name": "floatBufferViews",
      "target": 34962
    },
    {
      "buffer": 0,
      "byteLength": 269568,
      "byteOffset": 992632,
      "byteStride": 16,
      "name": "floatBufferViews",
      "target": 34962
    }
  ],
  "buffers": [
    {
      "byteLength": 1262200,
      "uri": "scene.bin"
    }
  ],
  "images": [
    {
      "uri": "textures/material_baseColor.jpeg"
    },
    {
      "uri": "textures/FLOOR_baseColor.png"
    },
    {
      "uri": "textures/CHROME_metallicRoughness.png"
    }
  ],
  "materials": [
    {
      "alphaMode": "BLEND",
      "doubleSided": true,
      "emissiveFactor": [
        0,
        0,
        0
      ],
      "name": "FLOOR",
      "pbrMetallicRoughness": {
        "baseColorFactor": [
          0,
          0,
          0,
          1
        ],
        "baseColorTexture": {
          "index": 1,
          "texCoord": 0
        },
        "metallicFactor": 0,
        "roughnessFactor": 1
      }
    },
    {
      "doubleSided": true,
      "emissiveFactor": [
        0,
        0,
        0
      ],
      "name": "material",
      "pbrMetallicRoughness": {
        "baseColorFactor": [
          1,
          1,
          1,
          1
        ],
        "baseColorTexture": {
          "index": 0,
          "texCoord": 0
        },
        "metallicFactor": 0,
        "roughnessFactor": 0.2943978659
      }
    },
    {
      "doubleSided": true,
      "emissiveFactor": [
        0,
        0,
        0
      ],
      "name": "CHROME",
      "occlusionTexture": {
        "index": 2,
        "strength": 1,
        "texCoord": 0
      },
      "pbrMetallicRoughness": {
        "baseColorFactor": [
          0.53992023219999996,
          0.53992023219999996,
          0.53992023219999996,
          1
        ],
        "metallicFactor": 1,
        "roughnessFactor": 0.17244664630000001
      }
    },
    {
      "doubleSided": true,
      "emissiveFactor": [
        0,
        0,
        0
      ],
      "name": "RUBBER",
      "pbrMetallicRoughness": {
        "baseColorFactor": [
          0.027451,
          0.027451,
          0.027451,
          1
        ],
        "metallicFactor": 0,
        "roughnessFactor": 0.87049600690000006
      }
    }
  ],
  "meshes": [
    {
      "name": "Plane001_FLOOR_0",
      "primitives": [
        {
          "attributes": {
            "NORMAL": 1,
            "POSITION": 0,
            "TANGENT": 2,
            "TEXCOORD_0": 3
          },
          "indices": 4,
          "material": 0,
          "mode": 4
        }
      ]
    },
    {
      "name": "Hooper_Storage_Coffe_Table_Natural_Ash_ASH_0",
      "primitives": [
        {
          "attributes": {
            "NORMAL": 6,
            "POSITION": 5,
            "TANGENT": 7,
            "TEXCOORD_0": 8,
            "TEXCOORD_1": 9,
            "TEXCOORD_2": 10
          },
          "indices": 11,
          "material": 1,
          "mode": 4
        }
      ]
    },
    {
      "name": "Hooper_Storage_Coffe_Table_Natural_Ash_CHROME_0",
      "primitives": [
        {
          "attributes": {
            "NORMAL": 13,
            "POSITION": 12,
            "TANGENT": 14,
            "TEXCOORD_0": 15,
            "TEXCOORD_1": 16
          },
          "indices": 17,
          "material": 2,
          "mode": 4
        }
      ]
    },
    {
      "name": "Hooper_Storage_Coffe_Table_Natural_Ash_RUBBER_0",
      "primitives": [
        {
          "attributes": {
            "NORMAL": 19,
            "POSITION": 18,
            "TANGENT": 20,
            "TEXCOORD_0": 21,
            "TEXCOORD_1": 22
          },
          "indices": 23,
          "material": 3,
          "mode": 4
        }
      ]
    }
  ],
  "nodes": [
    {
      "children": [
        1
      ],
      "name": "RootNode (gltf orientation matrix)",
      "rotation": [
        -0.70710678118654746,
        -0,
        -0,
        0.70710678118654757
      ]
    },
    {
      "children": [
        2
      ],
      "name": "RootNode (model correction matrix)"
    },
    {
      "children": [
        3
      ],
      "matrix": [
        1,
        0,
        0,
        0,
        0,
        0,
        1,
        0,
        0,
        -1,
        0,
        0,
        0,
        0,
        0,
        1
      ],
      "name": "84548e7437d64b8ab1308d49d778515d.fbx"
    },
    {
      "children": [
        4,
        6
      ],
      "name": "RootNode"
    },
    {
      "children": [
        5
      ],
      "matrix": [
        1,
        0,
        0,
        0,
        0,
        2.2204460492503131e-16,
        -1,
        0,
        0,
        1,
        2.2204460492503131e-16,
        0,
        0,
        0,
        0,
        1
      ],
      "name": "Plane001"
    },
    {
      "mesh": 0,
      "name": "Plane001_FLOOR_0"
    },
    {
      "children": [
        7
      ],
      "matrix": [
        1,
        0,
        0,
        0,
        0,
        2.2204460492503131e-16,
        -1,
        0,
        0,
        1,
        2.2204460492503131e-16,
        0,
        0,
        0.081107906997203827,
        -0.0001373291015625,
        1
      ],
      "name": "Hooper_Storage_Coffe_Table_Natural_Ash"
    },
    {
      "children": [
        8,
        9,
        10
      ],
      "matrix": [
        1,
        0,
        -0,
        0,
        0,
        1,
        0,
        0,
        0,
        0,
        1,
        0,
        -28.714405059814453,
        -13.027644157409668,
        26.537586212158203,
        1
      ],
      "name": ""
    },
    {
      "mesh": 1,
      "name": "Hooper_Storage_Coffe_Table_Natural_Ash_ASH_0"
    },
    {
      "mesh": 2,
      "name": "Hooper_Storage_Coffe_Table_Natural_Ash_CHROME_0"
    },
    {
      "mesh": 3,
      "name": "Hooper_Storage_Coffe_Table_Natural_Ash_RUBBER_0"
    }
  ],
  "samplers": [
    {
      "magFilter": 9729,
      "minFilter": 9987,
      "wrapS": 10497,
      "wrapT": 10497
    }
  ],
  "scene": 0,
  "scenes": [
    {
      "name": "OSG_Scene",
      "nodes": [
        0
      ]
    }
  ],
  "textures": [
    {
      "sampler": 0,
      "source": 0
    },
    {
      "sampler": 0,
      "source": 1
    },
    {
      "sampler": 0,
      "source": 2
    }
  ]
}

