{
  "accessors": [
    {
      "bufferView": 2,
      "componentType": 5126,
      "count": 35012,
      "max": [
        772.60205078125,
        774.1051025390625,
        627.981201171875
      ],
      "min": [
        -483.360595703125,
        -5.4079289839137346e-05,
        -627.9814453125
      ],
      "type": "VEC3"
    },
    {
      "bufferView": 2,
      "byteOffset": 420144,
      "componentType": 5126,
      "count": 35012,
      "max": [
        0.9999958872795105,
        1,
        0.99999582767486572
      ],
      "min": [
        -0.99999582767486572,
        -1,
        -0.99999582767486572
      ],
      "type": "VEC3"
    },
    {
      "bufferView": 3,
      "componentType": 5126,
      "count": 35012,
      "max": [
        1,
        0.99999582767486572,
        0.7086338996887207,
        1
      ],
      "min": [
        -1,
        -0.9999958872795105,
        -0.71016478538513184,
        1
      ],
      "type": "VEC4"
    },
    {
      "bufferView": 1,
      "componentType": 5126,
      "count": 35012,
      "max": [
        1.0161558389663696,
        1.0161558389663696
      ],
      "min": [
        -0.016155779361724854,
        -0.016155779361724854
      ],
      "type": "VEC2"
    },
    {
      "bufferView": 0,
      "componentType": 5125,
      "count": 190464,
      "max": [
        35011
      ],
      "min": [
        0
      ],
      "type": "SCALAR"
    }
  ],
  "asset": {
    "extras": {
      "author": "Zuo Modern (https://sketchfab.com/zuo)",
      "license": "CC-BY-NC-ND-4.0 (http://creativecommons.org/licenses/by-nc-nd/4.0/)",
      "source": "https://sketchfab.com/models/46678285c4174c21af96a6dfd3d46fde",
      "title": "Wilco Table White - 102173"
    },
    "generator": "Sketchfab-3.36.0",
    "version": "2.0"
  },
  "bufferViews": [
    {
      "buffer": 0,
      "byteLength": 761856,
      "byteOffset": 0,
      "name": "floatBufferViews",
      "target": 34963
    },
    {
      "buffer": 0,
      "byteLength": 280096,
      "byteOffset": 761856,
      "byteStride": 8,
      "name": "floatBufferViews",
      "target": 34962
    },
    {
      "buffer": 0,
      "byteLength": 840288,
      "byteOffset": 1041952,
      "byteStride": 12,
      "name": "floatBufferViews",
      "target": 34962
    },
    {
      "buffer": 0,
      "byteLength": 560192,
      "byteOffset": 1882240,
      "byteStride": 16,
      "name": "floatBufferViews",
      "target": 34962
    }
  ],
  "buffers": [
    {
      "byteLength": 2442432,
      "uri": "scene.bin"
    }
  ],
  "materials": [
    {
      "doubleSided": true,
      "name": "07_-_Default",
      "pbrMetallicRoughness": {
        "baseColorFactor": [
          1,
          1,
          1,
          1
        ],
        "metallicFactor": 0,
        "roughnessFactor": 0.26593295880000001
      }
    }
  ],
  "meshes": [
    {
      "name": "Line395_07 - Default_0",
      "primitives": [
        {
          "attributes": {
            "NORMAL": 1,
            "POSITION": 0,
            "TANGENT": 2,
            "TEXCOORD_0": 3
          },
          "indices": 4,
          "material": 0,
          "mode": 4
        }
      ]
    }
  ],
  "nodes": [
    {
      "children": [
        1
      ],
      "name": "RootNode (gltf orientation matrix)",
      "rotation": [
        -0.70710678118654746,
        -0,
        -0,
        0.70710678118654757
      ]
    },
    {
      "children": [
        2
      ],
      "name": "RootNode (model correction matrix)"
    },
    {
      "children": [
        3
      ],
      "matrix": [
        1,
        0,
        0,
        0,
        0,
        0,
        1,
        0,
        0,
        -1,
        0,
        0,
        0,
        0,
        0,
        1
      ],
      "name": "777102e09d554f24ae4e670262680c27.fbx"
    },
    {
      "children": [
        4
      ],
      "name": "RootNode"
    },
    {
      "children": [
        5
      ],
      "matrix": [
        -0.9530000090598908,
        -1.0434587735270146e-23,
        1.7040967748016283e-07,
        -0,
        5.3494403687900193e-14,
        0.95300000905985904,
        2.9916239478301366e-07,
        -0,
        1.7040967748015446e-07,
        -2.9916239478301837e-07,
        0.95300000905984383,
        -0,
        527.6041259765625,
        4.0650367736816406e-05,
        402.8134765625,
        1
      ],
      "name": "Line395"
    },
    {
      "mesh": 0,
      "name": "Line395_07 - Default_0"
    }
  ],
  "scene": 0,
  "scenes": [
    {
      "name": "OSG_Scene",
      "nodes": [
        0
      ]
    }
  ]
}

