{
  "accessors": [
    {
      "bufferView": 2,
      "componentType": 5126,
      "count": 12112,
      "max": [
        100.50474548339844,
        450.9835205078125,
        20
      ],
      "min": [
        -596.15655517578125,
        -245.67776489257812,
        0
      ],
      "type": "VEC3"
    },
    {
      "bufferView": 2,
      "byteOffset": 145344,
      "componentType": 5126,
      "count": 12112,
      "max": [
        0.99999940395355225,
        0.99999940395355225,
        1
      ],
      "min": [
        -0.99999940395355225,
        -0.99999940395355225,
        -1
      ],
      "type": "VEC3"
    },
    {
      "bufferView": 3,
      "componentType": 5126,
      "count": 12112,
      "max": [
        0.99999916553497314,
        0.99999940395355225,
        0.99996411800384521,
        1
      ],
      "min": [
        -0.99999940395355225,
        -0.99999934434890747,
        -0.99996429681777954,
        -1
      ],
      "type": "VEC4"
    },
    {
      "bufferView": 1,
      "componentType": 5126,
      "count": 12112,
      "max": [
        1.7159212827682495,
        0.99950051307678223
      ],
      "min": [
        -0.71592128276824951,
        0.00049948692321777344
      ],
      "type": "VEC2"
    },
    {
      "bufferView": 0,
      "componentType": 5125,
      "count": 72576,
      "max": [
        12111
      ],
      "min": [
        0
      ],
      "type": "SCALAR"
    },
    {
      "bufferView": 2,
      "byteOffset": 290688,
      "componentType": 5126,
      "count": 65532,
      "max": [
        233.19052124023438,
        358.69363403320312,
        25.000003814697266
      ],
      "min": [
        -358.693603515625,
        -358.693603515625,
        -430
      ],
      "type": "VEC3"
    },
    {
      "bufferView": 2,
      "byteOffset": 1077072,
      "componentType": 5126,
      "count": 65532,
      "max": [
        1,
        1,
        1
      ],
      "min": [
        -1,
        -1,
        -1
      ],
      "type": "VEC3"
    },
    {
      "bufferView": 3,
      "byteOffset": 193792,
      "componentType": 5126,
      "count": 65532,
      "max": [
        1,
        1,
        0.99984538555145264,
        1
      ],
      "min": [
        -1,
        -1,
        -0.99984544515609741,
        -1
      ],
      "type": "VEC4"
    },
    {
      "bufferView": 1,
      "byteOffset": 96896,
      "componentType": 5126,
      "count": 65532,
      "max": [
        0.99999994039535522,
        0.99950051307678223
      ],
      "min": [
        -0.055558681488037109,
        0.00049945712089538574
      ],
      "type": "VEC2"
    },
    {
      "bufferView": 0,
      "byteOffset": 290304,
      "componentType": 5125,
      "count": 374040,
      "max": [
        65531
      ],
      "min": [
        0
      ],
      "type": "SCALAR"
    },
    {
      "bufferView": 2,
      "byteOffset": 1863456,
      "componentType": 5126,
      "count": 65532,
      "max": [
        358.69366455078125,
        358.69363403320312,
        25
      ],
      "min": [
        -358.69366455078125,
        -358.69366455078125,
        -427.39248657226562
      ],
      "type": "VEC3"
    },
    {
      "bufferView": 2,
      "byteOffset": 2649840,
      "componentType": 5126,
      "count": 65532,
      "max": [
        0.9999854564666748,
        1,
        1
      ],
      "min": [
        -0.99998551607131958,
        -1,
        -1
      ],
      "type": "VEC3"
    },
    {
      "bufferView": 3,
      "byteOffset": 1242304,
      "componentType": 5126,
      "count": 65532,
      "max": [
        1,
        0.99999541044235229,
        0.99984550476074219,
        1
      ],
      "min": [
        -1,
        -0.99999529123306274,
        -0.99984544515609741,
        1
      ],
      "type": "VEC4"
    },
    {
      "bufferView": 1,
      "byteOffset": 621152,
      "componentType": 5126,
      "count": 65532,
      "max": [
        0.99974018335342407,
        0.99950051307678223
      ],
      "min": [
        0.00025981664657592773,
        0.00049951672554016113
      ],
      "type": "VEC2"
    },
    {
      "bufferView": 0,
      "byteOffset": 1786464,
      "componentType": 5125,
      "count": 370212,
      "max": [
        65531
      ],
      "min": [
        0
      ],
      "type": "SCALAR"
    },
    {
      "bufferView": 2,
      "byteOffset": 3436224,
      "componentType": 5126,
      "count": 65532,
      "max": [
        351.8826904296875,
        351.88262939453125,
        25
      ],
      "min": [
        -351.88275146484375,
        -358.69366455078125,
        -418.28298950195312
      ],
      "type": "VEC3"
    },
    {
      "bufferView": 2,
      "byteOffset": 4222608,
      "componentType": 5126,
      "count": 65532,
      "max": [
        0.99998551607131958,
        0.9999854564666748,
        1
      ],
      "min": [
        -0.99998438358306885,
        -0.99998438358306885,
        -1
      ],
      "type": "VEC3"
    },
    {
      "bufferView": 3,
      "byteOffset": 2290816,
      "componentType": 5126,
      "count": 65532,
      "max": [
        1,
        1,
        0.99477440118789673,
        1
      ],
      "min": [
        -1,
        -1,
        -0.99625062942504883,
        -1
      ],
      "type": "VEC4"
    },
    {
      "bufferView": 1,
      "byteOffset": 1145408,
      "componentType": 5126,
      "count": 65532,
      "max": [
        0.99974018335342407,
        0.96711695194244385
      ],
      "min": [
        0.00025981664657592773,
        0.00067311525344848633
      ],
      "type": "VEC2"
    },
    {
      "bufferView": 0,
      "byteOffset": 3267312,
      "componentType": 5125,
      "count": 354114,
      "max": [
        65531
      ],
      "min": [
        0
      ],
      "type": "SCALAR"
    },
    {
      "bufferView": 2,
      "byteOffset": 5008992,
      "componentType": 5126,
      "count": 16635,
      "max": [
        -80.619781494140625,
        149.41302490234375,
        1.9120330810546875
      ],
      "min": [
        -351.8826904296875,
        -351.88259887695312,
        -418.28298950195312
      ],
      "type": "VEC3"
    },
    {
      "bufferView": 2,
      "byteOffset": 5208612,
      "componentType": 5126,
      "count": 16635,
      "max": [
        0.99945324659347534,
        0.99945324659347534,
        0.99999701976776123
      ],
      "min": [
        -0.99973952770233154,
        -0.99973940849304199,
        -0.99997568130493164
      ],
      "type": "VEC3"
    },
    {
      "bufferView": 3,
      "byteOffset": 3339328,
      "componentType": 5126,
      "count": 16635,
      "max": [
        0.99999821186065674,
        0.99999904632568359,
        0.93531131744384766,
        1
      ],
      "min": [
        -0.9999997615814209,
        -0.9999997615814209,
        -0.83810609579086304,
        -1
      ],
      "type": "VEC4"
    },
    {
      "bufferView": 1,
      "byteOffset": 1669664,
      "componentType": 5126,
      "count": 16635,
      "max": [
        0.72943538427352905,
        0.86529844999313354
      ],
      "min": [
        0.27151626348495483,
        0.13484019041061401
      ],
      "type": "VEC2"
    },
    {
      "bufferView": 0,
      "byteOffset": 4683768,
      "componentType": 5125,
      "count": 89250,
      "max": [
        16634
      ],
      "min": [
        0
      ],
      "type": "SCALAR"
    }
  ],
  "asset": {
    "extras": {
      "author": "Zuo Modern (https://sketchfab.com/zuo)",
      "license": "CC-BY-NC-ND-4.0 (http://creativecommons.org/licenses/by-nc-nd/4.0/)",
      "source": "https://sketchfab.com/3d-models/margarita-table-brown-a11050-5f2886503e354dbd927438ae454dcfd4",
      "title": "Margarita Table Brown - A11050"
    },
    "generator": "Sketchfab-5.13.0",
    "version": "2.0"
  },
  "bufferViews": [
    {
      "buffer": 0,
      "byteLength": 5040768,
      "byteOffset": 0,
      "name": "floatBufferViews",
      "target": 34963
    },
    {
      "buffer": 0,
      "byteLength": 1802744,
      "byteOffset": 5040768,
      "byteStride": 8,
      "name": "floatBufferViews",
      "target": 34962
    },
    {
      "buffer": 0,
      "byteLength": 5408232,
      "byteOffset": 6843512,
      "byteStride": 12,
      "name": "floatBufferViews",
      "target": 34962
    },
    {
      "buffer": 0,
      "byteLength": 3605488,
      "byteOffset": 12251744,
      "byteStride": 16,
      "name": "floatBufferViews",
      "target": 34962
    }
  ],
  "buffers": [
    {
      "byteLength": 15857232,
      "uri": "scene.bin"
    }
  ],
  "images": [
    {
      "uri": "textures/01_-_Default_baseColor.jpeg"
    }
  ],
  "materials": [
    {
      "doubleSided": true,
      "name": "01_-_Default",
      "pbrMetallicRoughness": {
        "baseColorFactor": [
          1,
          1,
          1,
          1
        ],
        "baseColorTexture": {
          "index": 0,
          "texCoord": 0
        },
        "metallicFactor": 0,
        "roughnessFactor": 0.22819710979999999
      }
    },
    {
      "doubleSided": true,
      "name": "02_-_Default",
      "pbrMetallicRoughness": {
        "baseColorFactor": [
          0.84644337729999997,
          0.61119211750000002,
          0.32856411899999999,
          1
        ],
        "metallicFactor": 1,
        "roughnessFactor": 0.3036688079
      }
    }
  ],
  "meshes": [
    {
      "name": "Cylinder002_01 - Default_0",
      "primitives": [
        {
          "attributes": {
            "NORMAL": 1,
            "POSITION": 0,
            "TANGENT": 2,
            "TEXCOORD_0": 3
          },
          "indices": 4,
          "material": 0,
          "mode": 4
        }
      ]
    },
    {
      "name": "Cylinder001_02 - Default_0",
      "primitives": [
        {
          "attributes": {
            "NORMAL": 6,
            "POSITION": 5,
            "TANGENT": 7,
            "TEXCOORD_0": 8
          },
          "indices": 9,
          "material": 1,
          "mode": 4
        }
      ]
    },
    {
      "name": "Cylinder001_02 - Default_0",
      "primitives": [
        {
          "attributes": {
            "NORMAL": 11,
            "POSITION": 10,
            "TANGENT": 12,
            "TEXCOORD_0": 13
          },
          "indices": 14,
          "material": 1,
          "mode": 4
        }
      ]
    },
    {
      "name": "Cylinder001_02 - Default_0",
      "primitives": [
        {
          "attributes": {
            "NORMAL": 16,
            "POSITION": 15,
            "TANGENT": 17,
            "TEXCOORD_0": 18
          },
          "indices": 19,
          "material": 1,
          "mode": 4
        }
      ]
    },
    {
      "name": "Cylinder001_02 - Default_0",
      "primitives": [
        {
          "attributes": {
            "NORMAL": 21,
            "POSITION": 20,
            "TANGENT": 22,
            "TEXCOORD_0": 23
          },
          "indices": 24,
          "material": 1,
          "mode": 4
        }
      ]
    }
  ],
  "nodes": [
    {
      "children": [
        1
      ],
      "name": "RootNode (gltf orientation matrix)",
      "rotation": [
        -0.70710678118654746,
        -0,
        -0,
        0.70710678118654757
      ]
    },
    {
      "children": [
        2
      ],
      "name": "RootNode (model correction matrix)"
    },
    {
      "children": [
        3
      ],
      "matrix": [
        1,
        0,
        0,
        0,
        0,
        0,
        1,
        0,
        0,
        -1,
        0,
        0,
        0,
        0,
        0,
        1
      ],
      "name": "aa879a79d164443aa6ed26a4a3ca6cba.fbx"
    },
    {
      "children": [
        4
      ],
      "name": "RootNode"
    },
    {
      "children": [
        5,
        7
      ],
      "matrix": [
        1,
        0,
        0,
        0,
        0,
        2.2204460492503131e-16,
        -1,
        0,
        0,
        1,
        2.2204460492503131e-16,
        0,
        192.82232666015625,
        228.25823974609375,
        -169.20028686523438,
        1
      ],
      "name": "A11050"
    },
    {
      "children": [
        6
      ],
      "matrix": [
        1,
        0,
        0,
        0,
        0,
        1,
        0,
        0,
        0,
        0,
        1,
        0,
        247.82586669921875,
        -102.65283203125,
        207.5,
        1
      ],
      "name": "Cylinder002"
    },
    {
      "mesh": 0,
      "name": "Cylinder002_01 - Default_0"
    },
    {
      "children": [
        8,
        9,
        10,
        11
      ],
      "matrix": [
        1,
        0,
        0,
        0,
        0,
        1,
        0,
        0,
        0,
        0,
        1,
        0,
        -3.0517578125e-05,
        3.0517578125e-05,
        202.5,
        1
      ],
      "name": "Cylinder001"
    },
    {
      "mesh": 1,
      "name": "Cylinder001_02 - Default_0"
    },
    {
      "mesh": 2,
      "name": "Cylinder001_02 - Default_0"
    },
    {
      "mesh": 3,
      "name": "Cylinder001_02 - Default_0"
    },
    {
      "mesh": 4,
      "name": "Cylinder001_02 - Default_0"
    }
  ],
  "samplers": [
    {
      "magFilter": 9729,
      "minFilter": 9987,
      "wrapS": 10497,
      "wrapT": 10497
    }
  ],
  "scene": 0,
  "scenes": [
    {
      "name": "OSG_Scene",
      "nodes": [
        0
      ]
    }
  ],
  "textures": [
    {
      "sampler": 0,
      "source": 0
    }
  ]
}

